HIERARCHY
ROOT pelvis
{
  OFFSET 0 0 0
  CHANNELS 6 Xposition Yposition Zposition Zrotation Xrotation Yrotation
  JOINT pelvis_right_femur
  {
    OFFSET -11.43119 -3.542788 0.2090856
    CHANNELS 3 Zrotation Xrotation Yrotation
    JOINT right_femur_tibia
    {
      OFFSET -1.028693 -40.73281 5
      CHANNELS 3 Zrotation Xrotation Yrotation
      JOINT right_tibia_foot
      {
        OFFSET -0.5013517 -42.05707 -5
        CHANNELS 3 Zrotation Xrotation Yrotation
        End Site
        {
          OFFSET 0 -5 10
        }
      }
    }
  }
  JOINT pelvis_left_femur
  {
    OFFSET 11.43119 -3.542788 0.2090856
    CHANNELS 3 Zrotation Xrotation Yrotation
    JOINT left_femur_tibia
    {
      OFFSET 1.028693 -40.73281 5
      CHANNELS 3 Zrotation Xrotation Yrotation
      JOINT left_tibia_foot
      {
        OFFSET 0.3200228 -42.98253 -5
        CHANNELS 3 Zrotation Xrotation Yrotation
        End Site
        {
          OFFSET 0 -5 10
        }
      }
    }
  }
  JOINT pelvis_spine1
  {
    OFFSET 0 8.64413 -3.209807
    CHANNELS 3 Zrotation Xrotation Yrotation
    JOINT spine1
    {
      OFFSET 0 29.53957 -1.762685
      CHANNELS 3 Zrotation Xrotation Yrotation
      JOINT spine2
      {
        OFFSET 0 16.36153 -0.1422377
        CHANNELS 3 Zrotation Xrotation Yrotation
        JOINT neck
        {
          OFFSET 0 11.60093 5
          CHANNELS 3 Zrotation Xrotation Yrotation
          End Site
          {
            OFFSET 0 20 0
          }
        }
      }
      JOINT right_manubrium
      {
        OFFSET -4.671311 15.89868 4
        CHANNELS 3 Zrotation Xrotation Yrotation
        JOINT right_clavicle
        {
          OFFSET -13.601 1.573642 -2.74176
          CHANNELS 3 Zrotation Xrotation Yrotation
          JOINT right_humerus
          {
            OFFSET -0.06331682 -27.72702 2.252146
            CHANNELS 3 Zrotation Xrotation Yrotation
            JOINT right_radius
            {
              OFFSET -0.5696302 -23.92083 0.4042105
              CHANNELS 3 Zrotation Xrotation Yrotation
              End Site
              {
                OFFSET 0 -15 0
              }
            }
          }
        }
      }
      JOINT left_manubrium
      {
        OFFSET 4.671311 15.89868 4
        CHANNELS 3 Zrotation Xrotation Yrotation
        JOINT left_clavicle
        {
          OFFSET 13.601 1.573642 -2.74176
          CHANNELS 3 Zrotation Xrotation Yrotation
          JOINT left_humerus
          {
            OFFSET 0.000209614 -29.01858 1.101395
            CHANNELS 3 Zrotation Xrotation Yrotation
            JOINT left_radius
            {
              OFFSET -0.2288314 -24.59216 1.790347
              CHANNELS 3 Zrotation Xrotation Yrotation
              End Site
              {
                OFFSET 0 -15 0
              }
            }
          }
        }
      }
    }
  }
}
MOTION
Frames: 11
Frame Time: 0.0416666666667
-0.03957275 47.99912 -0.09350604 -2.011821 -22.28029 -1.448196 -49.47753 -60.88867 -37.69609 -180 81.6303 -180 10.81219 2.894739 3.229401 63.56305 -46.77567 51.60719 -180 72.2791 -180 -6.997661 -7.609104 -13.09836 -2.452725 18.15554 -1.671214 10.02574 15.40929 -12.19843 -9.332399 8.106266 6.560683 10.52125 -27.93287 0.7644481 20.01199 -13.75229 26.61733 -61.02875 -32.13428 9.886292 0 -71.00165 0 3.201223 -23.90905 -2.463956 -27.29184 -33.91433 -8.748996 51.95902 -26.79999 -29.41669 0 -78.36331 0 -19.8326 -3.636764 -2.434152
-0.09655186 47.99608 -0.08642094 -1.907977 -22.28074 -1.613281 -49.63861 -60.98561 -37.85572 -180 81.59608 -180 10.78558 2.941514 3.344631 63.39106 -46.76026 51.42072 -180 72.2659 -180 -6.994977 -7.596637 -12.90591 -2.479053 18.22069 -1.836717 10.061 15.47273 -12.43451 -9.41381 8.266086 5.689878 10.65511 -27.49608 -0.7943541 19.49504 -15.11237 25.72285 -62.61948 -30.62995 8.186127 0 -69.87923 0 2.773062 -24.39943 -2.876919 -27.08225 -33.90706 -7.952377 52.51119 -26.21875 -29.54904 0 -79.10715 0 -20.33154 -2.419291 -4.574573
-0.1611272 47.97594 -0.06893274 -1.796351 -22.27472 -1.725054 -49.87568 -61.06892 -38.09374 -180 81.53758 -180 10.76191 2.969124 3.454196 63.22587 -46.80508 51.23204 -180 72.23348 -180 -6.995897 -7.594266 -12.72462 -2.470971 18.29088 -1.867383 9.981417 15.59953 -12.58973 -9.391719 8.393114 4.461798 10.79025 -27.11191 -2.769139 18.99221 -16.77099 24.87876 -64.38656 -28.95493 6.26943 0 -67.67552 0 2.416985 -24.617 -3.28632 -26.69059 -33.8728 -6.714353 53.46586 -25.18401 -29.38682 0 -79.44784 0 -20.67173 -1.030212 -6.821997
-0.2012786 47.94795 -0.04937775 -1.676483 -22.22979 -1.785707 -50.21261 -61.14655 -38.40301 -180 81.46932 -180 10.74189 2.977936 3.543527 63.07939 -46.89163 51.09483 -180 72.19612 -180 -7.002118 -7.602891 -12.57014 -2.335617 18.43674 -1.781507 9.791071 15.81398 -12.64101 -9.165377 8.623603 3.107528 11.07755 -26.84563 -4.811152 18.429 -18.72442 24.19656 -66.20019 -27.30186 4.310396 0 -64.44279 0 2.146884 -24.56437 -3.701914 -26.32093 -33.90383 -5.269698 54.67391 -23.78297 -28.89366 0 -79.19005 0 -20.76463 0.510698 -9.074135
-0.2285364 47.93486 -0.03521479 -1.557299 -22.13936 -1.799313 -50.58812 -61.2255 -38.73002 -180 81.40279 -180 10.72442 2.97073 3.611227 62.965 -47.00161 51.03511 -180 72.18251 -180 -7.009907 -7.610176 -12.45447 -2.115259 18.63629 -1.637935 9.399402 15.97766 -12.60373 -8.825877 8.810939 1.598885 11.40341 -26.67027 -6.983713 17.88197 -20.78323 23.842 -67.8798 -25.67102 2.46371 0 -60.12355 0 1.974057 -24.21641 -4.13566 -26.09656 -34.04802 -3.849281 56.0071 -22.1135 -28.09907 0 -78.20497 0 -20.62583 2.162444 -11.26089
-0.2286889 47.91603 -0.01503748 -1.433647 -22.02302 -1.768013 -51.00983 -61.3092 -39.0772 -180 81.35252 -180 10.70722 2.954981 3.653744 62.88766 -47.12786 51.08093 -180 72.18304 -180 -7.022237 -7.619829 -12.38152 -1.805137 18.88369 -1.458216 8.869823 16.08082 -12.45622 -8.499002 8.947389 0.2034705 11.73612 -26.56018 -8.998142 17.38202 -22.84686 23.78502 -69.33084 -24.07734 0.807964 0 -54.97951 0 1.903763 -23.63397 -4.567312 -26.00677 -34.31581 -2.636517 57.33684 -20.3622 -27.13576 0 -76.73645 0 -20.33607 3.797891 -13.37022
-0.2365315 47.91134 0.00412363 -1.295286 -21.8657 -1.686936 -51.47583 -61.40141 -39.43827 -180 81.28559 -180 10.69172 2.929467 3.678984 62.8508 -47.23078 51.21217 -180 72.19634 -180 -7.031228 -7.62661 -12.3546 -1.43708 19.18702 -1.233937 8.276793 16.14259 -12.19131 -8.299066 9.002377 -0.9281375 12.02451 -26.5694 -10.68963 17.01438 -24.85172 24.02573 -70.49915 -22.5679 -0.6413798 0 -49.34471 0 1.926063 -22.89503 -4.965428 -25.99049 -34.61366 -1.702477 58.55957 -18.66377 -26.19561 0 -75.1128 0 -19.98516 5.271906 -15.39757
-0.2406804 47.89471 0.04659351 -1.163778 -21.70185 -1.580302 -51.94972 -61.48201 -39.79406 -180 81.19415 -180 10.68567 2.88449 3.694407 62.87447 -47.30598 51.41918 -180 72.20374 -180 -7.035638 -7.635163 -12.38053 -1.075642 19.50727 -0.9934509 7.710433 16.13988 -11.87305 -8.251999 9.048474 -1.765422 12.2375 -26.66287 -12.02496 16.85076 -26.83163 24.46114 -71.45931 -21.15225 -2.007235 0 -43.67211 0 1.974175 -22.1075 -5.304186 -26.03924 -34.88533 -1.018606 59.52566 -17.17977 -25.41031 0 -73.99275 0 -19.60912 6.363074 -17.38513
-0.2611375 47.89988 0.07228794 -0.9957559 -21.55791 -1.401633 -52.40084 -61.51502 -40.10908 -180 81.12091 -180 10.68192 2.824219 3.695523 62.85113 -47.37546 51.62476 -180 72.2642 -180 -7.02933 -7.629864 -12.44809 -0.6843014 19.71584 -0.6554156 7.199996 16.1415 -11.46187 -8.449835 9.209775 -2.366626 12.27524 -26.77485 -13.12376 16.75332 -28.41709 25.04571 -72.12184 -19.82341 -2.955652 0 -38.30763 0 2.282153 -21.30646 -5.35534 -26.14077 -35.20984 -0.6910069 59.97014 -16.36171 -24.90859 0 -74.45964 0 -19.22585 6.879858 -19.3604
-0.2682911 47.9236 0.1079068 -0.8324124 -21.36983 -1.227598 -52.87538 -61.54488 -40.44244 -180 81.07113 -180 10.67821 2.753594 3.708676 62.8454 -47.43875 51.87782 -180 72.33297 -180 -7.024453 -7.628199 -12.51898 -0.3373789 19.91682 -0.3773442 6.874212 16.0518 -11.14587 -8.825846 9.340702 -2.762579 12.17264 -26.97487 -13.97271 16.88705 -29.96951 25.78485 -72.67489 -18.70512 -3.882332 0 -33.56261 0 2.573267 -20.61366 -5.302538 -26.20878 -35.35806 -0.5615869 60.14196 -15.80698 -24.70058 0 -75.30565 0 -18.89402 7.213007 -21.15829
-0.2704552 47.96389 0.1564169 -0.7006458 -21.14831 -1.082986 -53.31543 -61.575 -40.78752 -180 81.03894 -180 10.68122 2.676737 3.728707 62.88384 -47.49093 52.15592 -180 72.39578 -180 -7.018313 -7.63594 -12.59053 0.003338429 20.13814 -0.1896531 6.722265 15.93729 -10.97183 -9.319667 9.327231 -2.924313 11.95959 -27.28241 -14.48438 17.22821 -31.39331 26.7104 -73.08209 -17.83958 -4.704706 0 -29.47629 0 2.860964 -20.02471 -5.148213 -26.36817 -35.32073 -0.7458954 60.11699 -15.39335 -24.74748 0 -75.96315 0 -18.60131 7.491878 -22.76744
